<svg width="15" height="15" viewBox="0 0 15 15" fill="none" xmlns="http://www.w3.org/2000/svg">
<g clip-path="url(#clip0_12_89)">
<path d="M7.5 14.0625C11.1244 14.0625 14.0625 11.1244 14.0625 7.5C14.0625 3.87563 11.1244 0.9375 7.5 0.9375C3.87563 0.9375 0.9375 3.87563 0.9375 7.5C0.9375 11.1244 3.87563 14.0625 7.5 14.0625Z" fill="url(#paint0_linear_12_89)"/>
<path d="M10.775 4.78537C10.8334 4.40781 10.4744 4.10979 10.1387 4.25719L3.45226 7.19287C3.21151 7.29858 3.22912 7.66327 3.47881 7.74277L4.8577 8.18189C5.1209 8.2657 5.40586 8.22234 5.63569 8.06358L8.74453 5.91577C8.83828 5.85098 8.94047 5.9843 8.86036 6.06684L6.62255 8.37403C6.40547 8.59786 6.44855 8.97712 6.70969 9.14086L9.21516 10.712C9.49617 10.8882 9.85767 10.7112 9.91022 10.3716L10.775 4.78537Z" fill="white"/>
</g>
<defs>
<linearGradient id="paint0_linear_12_89" x1="7.5" y1="0.9375" x2="7.5" y2="14.0625" gradientUnits="userSpaceOnUse">
<stop stop-color="#37BBFE"/>
<stop offset="1" stop-color="#007DBB"/>
</linearGradient>
<clipPath id="clip0_12_89">
<rect width="15" height="15" fill="white"/>
</clipPath>
</defs>
</svg>
