<svg width="15" height="15" viewBox="0 0 15 15" fill="none" xmlns="http://www.w3.org/2000/svg">
<g clip-path="url(#clip0_12_92)">
<path d="M12.6938 8.60721C13.1715 9.07362 13.6757 9.51246 14.1042 10.0259C14.2935 10.2541 14.4727 10.4895 14.6098 10.7543C14.804 11.1307 14.6281 11.5449 14.2906 11.5674L12.1925 11.5664C11.6513 11.6114 11.2197 11.3935 10.8567 11.0235C10.5662 10.7276 10.2972 10.4127 10.0179 10.1069C9.90343 9.98186 9.78354 9.86423 9.64037 9.77124C9.35396 9.58532 9.10534 9.64224 8.94166 9.94099C8.77496 10.2448 8.73714 10.5812 8.72079 10.9199C8.69832 11.4139 8.54899 11.5438 8.0527 11.5664C6.99212 11.6164 5.98556 11.456 5.05049 10.9209C4.22613 10.4493 3.58686 9.7834 3.03043 9.02959C1.94705 7.56177 1.11742 5.94883 0.371807 4.29067C0.203965 3.9171 0.326719 3.71657 0.738899 3.70945C1.42337 3.69615 2.10772 3.69711 2.79297 3.70848C3.07115 3.71255 3.25531 3.8721 3.36274 4.13493C3.73306 5.04548 4.18619 5.91179 4.75494 6.71477C4.9064 6.92855 5.06083 7.14233 5.28079 7.2928C5.5241 7.45941 5.70935 7.40419 5.82381 7.13316C5.89644 6.9613 5.92823 6.7762 5.9446 6.59213C5.99883 5.95887 6.00598 5.32667 5.91088 4.69567C5.85249 4.30183 5.63069 4.04692 5.23767 3.97236C5.03713 3.93436 5.06698 3.85974 5.16407 3.74528C5.33271 3.54787 5.49135 3.42497 5.80749 3.42497H8.17865C8.55192 3.49865 8.63483 3.66635 8.68593 4.04194L8.68795 6.67583C8.68388 6.82126 8.76058 7.25275 9.02249 7.34899C9.23211 7.41752 9.37028 7.24982 9.49605 7.1169C10.0638 6.51435 10.4689 5.80225 10.8309 5.06487C10.9916 4.74064 11.1297 4.40393 11.2636 4.06752C11.3627 3.81788 11.5184 3.695 11.7996 3.70048L14.0817 3.7025C14.1494 3.7025 14.2179 3.7035 14.2834 3.71472C14.6679 3.78026 14.7733 3.9457 14.6546 4.3212C14.4674 4.91036 14.1033 5.40132 13.7473 5.89457C13.3667 6.42115 12.9597 6.92975 12.5823 7.4595C12.2355 7.94322 12.2631 8.18709 12.6938 8.60721Z" fill="#62A2FB"/>
<path d="M7.69722 11.8738C6.63292 11.8738 5.71551 11.6457 4.90205 11.1803C4.12782 10.7373 3.45671 10.1103 2.78997 9.20707C1.84309 7.92403 1.01322 6.44556 0.0992667 4.41325C-0.0285856 4.12866 -0.0329508 3.88915 0.0862588 3.70136C0.205293 3.51386 0.423116 3.41609 0.733694 3.41073C1.39217 3.39793 2.06762 3.39764 2.79793 3.4098C3.18126 3.41542 3.48026 3.63278 3.63932 4.02193C4.02554 4.97162 4.47018 5.79583 4.99873 6.54212C5.13106 6.72886 5.26791 6.92204 5.44949 7.04626L5.45037 7.04685C5.48468 7.07029 5.53179 7.05643 5.54802 7.01822L5.54855 7.01697C5.59897 6.89773 5.63017 6.75435 5.64696 6.5657C5.70716 5.86307 5.69714 5.28273 5.61537 4.74023C5.57398 4.461 5.44038 4.31496 5.18198 4.26594C5.10859 4.25206 4.88514 4.20972 4.81014 3.99764C4.73602 3.78805 4.88148 3.6166 4.93627 3.55203C5.12547 3.33055 5.36143 3.12626 5.8075 3.12626H8.17866C8.19703 3.12626 8.21563 3.12784 8.23368 3.13136C8.83093 3.24811 8.93086 3.62539 8.98204 4.00174C8.98383 4.01501 8.98477 4.0284 8.98477 4.04179L8.98679 6.67568C8.98679 6.67856 8.98676 6.68143 8.98667 6.68433C8.98515 6.73902 8.99997 6.81695 9.02253 6.8885C9.05388 6.98779 9.18112 7.01612 9.25231 6.94009C9.25269 6.93968 9.2531 6.93924 9.25351 6.93883L9.27906 6.91164C9.85395 6.30147 10.2506 5.56913 10.5628 4.9333C10.726 4.60394 10.8668 4.25674 10.986 3.95715C11.1351 3.58203 11.4085 3.39521 11.8026 3.4018L14.082 3.40382C14.1606 3.40382 14.2449 3.40508 14.3339 3.42031C14.5159 3.45134 14.7742 3.51901 14.9136 3.74733C15.0529 3.97561 14.9951 4.23565 14.9395 4.41137C14.7448 5.02427 14.3814 5.52718 14.03 6.0136L13.9896 6.06956C13.8095 6.31879 13.6216 6.56661 13.4398 6.80626C13.2353 7.07585 13.0239 7.35464 12.8256 7.63296C12.693 7.818 12.6354 7.94319 12.6438 8.02757C12.6524 8.11341 12.7346 8.22963 12.9024 8.39337L12.9025 8.39346C13.0273 8.5153 13.1569 8.63803 13.2822 8.75671C13.6387 9.09436 14.0073 9.44349 14.3336 9.83452C14.5134 10.0511 14.7177 10.3129 14.8751 10.617C15.0261 10.9096 15.0283 11.2395 14.8812 11.5C14.759 11.7164 14.551 11.8496 14.3104 11.8656C14.3037 11.866 14.2971 11.8662 14.2905 11.8662C14.2905 11.8662 14.2904 11.8662 14.2904 11.8662L12.2043 11.8653C11.6237 11.9099 11.0988 11.697 10.6434 11.2328C10.4421 11.0278 10.2499 10.8127 10.0641 10.6048C9.97677 10.5072 9.88653 10.4062 9.79723 10.3084C9.70914 10.2122 9.602 10.1026 9.47757 10.0218C9.40952 9.97767 9.34831 9.95654 9.3138 9.96513C9.28131 9.9733 9.24015 10.018 9.20365 10.0845C9.07313 10.3224 9.03551 10.5962 9.01916 10.9342C8.99004 11.5738 8.72285 11.835 8.06622 11.8649C7.94141 11.8708 7.81828 11.8738 7.69722 11.8738ZM0.598986 4.02694C0.601887 4.05105 0.611936 4.09608 0.644368 4.16824C1.54012 6.16014 2.35016 7.60472 3.27085 8.85216C3.88653 9.68631 4.49919 10.2613 5.19886 10.6616C6.00315 11.1218 6.93192 11.32 8.03865 11.2679C8.26895 11.2574 8.33798 11.2229 8.35863 11.2033C8.37442 11.1883 8.41216 11.1294 8.42232 10.9062C8.43996 10.5414 8.48332 10.1552 8.6797 9.79723C8.83131 9.52054 9.0288 9.42067 9.16779 9.38563C9.30821 9.35021 9.53248 9.34494 9.80303 9.52057C9.98377 9.63794 10.1245 9.78076 10.2382 9.90504C10.33 10.0055 10.4213 10.1077 10.5096 10.2065C10.6909 10.4093 10.8783 10.619 11.0699 10.8142C11.4077 11.1584 11.7569 11.3028 12.1678 11.2686C12.1759 11.2679 12.1842 11.2676 12.1924 11.2676C12.1925 11.2676 12.1926 11.2676 12.1926 11.2676L14.2783 11.2686C14.2966 11.2664 14.3321 11.257 14.3608 11.2061C14.396 11.1438 14.4128 11.024 14.3443 10.8912C14.2131 10.6379 14.0331 10.408 13.8743 10.2166C13.571 9.85307 13.2311 9.53118 12.8713 9.1904C12.7444 9.07022 12.6132 8.94594 12.4852 8.82099C11.9436 8.29271 11.9054 7.89084 12.3394 7.28536C12.5424 7.00044 12.7565 6.71808 12.9637 6.445C13.1434 6.20802 13.3292 5.963 13.5052 5.71949L13.5456 5.66344C13.8843 5.19463 14.2043 4.75183 14.3698 4.23067C14.4027 4.12672 14.4031 4.07692 14.4015 4.0596C14.3868 4.05029 14.342 4.02773 14.2332 4.00918C14.1902 4.00183 14.1349 4.00122 14.0817 4.00122L11.7994 3.99919C11.7975 3.99919 11.7957 3.99919 11.7938 3.99914C11.6595 3.99629 11.6032 4.02196 11.5413 4.17779C11.4176 4.48851 11.2713 4.84898 11.0987 5.19747C10.7674 5.87233 10.3433 6.65333 9.71353 7.32174L9.68968 7.34711C9.55586 7.49005 9.30654 7.7561 8.92969 7.63294C8.92626 7.63179 8.92283 7.63062 8.91944 7.62939C8.5055 7.47728 8.38391 6.92245 8.38916 6.67226L8.38717 4.06265C8.37389 3.96946 8.35224 3.85022 8.31433 3.79977C8.3054 3.7879 8.27932 3.75322 8.14766 3.72368H5.80756C5.71214 3.72368 5.64338 3.73693 5.58239 3.76868C5.92583 3.92449 6.14386 4.2295 6.20647 4.65176C6.2953 5.24112 6.30673 5.866 6.24236 6.61753C6.21983 6.87083 6.17433 7.07131 6.09907 7.24935C5.98241 7.52556 5.8092 7.62719 5.6844 7.66381C5.55965 7.70038 5.35914 7.70846 5.11199 7.53924C4.84222 7.35464 4.65862 7.09557 4.51114 6.88738C3.9557 6.10316 3.48955 5.23963 3.08598 4.24737C3.00055 4.03833 2.88773 4.0086 2.78865 4.00713C2.06492 3.99506 1.39654 3.99539 0.744739 4.00804C0.666458 4.00956 0.621838 4.01944 0.598986 4.02694Z" fill="#3765A3"/>
<path d="M1.91275 5.4034C1.80362 5.4034 1.69842 5.3434 1.64583 5.23934C1.60112 5.15089 1.55682 5.06218 1.51291 4.97329C1.43981 4.82534 1.50051 4.64613 1.64846 4.57306C1.7965 4.49994 1.9756 4.5607 2.04869 4.70862C2.09179 4.79587 2.13529 4.88294 2.17918 4.96978C2.2536 5.11705 2.19456 5.29676 2.04729 5.37123C2.00407 5.39306 1.95805 5.4034 1.91275 5.4034Z" fill="#3765A3"/>
<path d="M3.81316 8.54586C3.72155 8.54586 3.63111 8.50388 3.57251 8.42448C3.06691 7.73943 2.59472 6.9969 2.12902 6.1544C2.04918 6.00999 2.10157 5.82818 2.24597 5.74834C2.39038 5.66854 2.5722 5.72086 2.65203 5.8653C3.10496 6.68471 3.56334 7.40576 4.05331 8.06958C4.15128 8.20235 4.12309 8.38944 3.99035 8.48741C3.937 8.5269 3.8748 8.54586 3.81316 8.54586Z" fill="#3765A3"/>
</g>
<defs>
<clipPath id="clip0_12_92">
<rect width="15" height="15" fill="white"/>
</clipPath>
</defs>
</svg>
