<svg width="15" height="15" viewBox="0 0 15 15" fill="none" xmlns="http://www.w3.org/2000/svg">
<g clip-path="url(#clip0_12_85)">
<path fill-rule="evenodd" clip-rule="evenodd" d="M7.49783 0C3.36321 0 0 3.36415 0 7.49993C0 9.14014 0.528951 10.6613 1.42813 11.8959L0.493622 14.6824L3.37639 13.7611C4.56206 14.5459 5.97701 15 7.50217 15C11.6368 15 15 11.6357 15 7.50007C15 3.36428 11.6368 0.000123978 7.50217 0.000123978L7.49783 0ZM5.40401 3.80963C5.25859 3.46133 5.14837 3.44815 4.92805 3.43919C4.85304 3.43483 4.76944 3.43048 4.67676 3.43048C4.39014 3.43048 4.09046 3.51423 3.9097 3.69939C3.68939 3.92425 3.14276 4.44887 3.14276 5.52475C3.14276 6.60063 3.92737 7.64117 4.03311 7.78676C4.14333 7.9321 5.56274 10.172 7.76665 11.0848C9.49011 11.7991 10.0015 11.7329 10.3938 11.6492C10.9668 11.5257 11.6853 11.1023 11.8661 10.591C12.0468 10.0794 12.0468 9.64287 11.9938 9.55029C11.941 9.4577 11.7954 9.40494 11.5751 9.29457C11.3548 9.18432 10.2836 8.65521 10.0808 8.58465C9.88236 8.50974 9.69289 8.53624 9.54311 8.74791C9.33151 9.04332 9.12438 9.34322 8.95681 9.52391C8.82457 9.66502 8.60848 9.68268 8.42785 9.60765C8.18539 9.50636 7.50666 9.26806 6.66906 8.52293C6.02105 7.94542 5.5803 7.2268 5.45254 7.01077C5.32465 6.7904 5.43934 6.66235 5.5406 6.54339C5.65082 6.40663 5.75657 6.3097 5.86679 6.18177C5.97701 6.05398 6.03872 5.98778 6.10926 5.83783C6.18427 5.69237 6.13127 5.54242 6.0784 5.43217C6.02553 5.32192 5.58477 4.24603 5.40401 3.80963Z" fill="#67C15E"/>
</g>
<defs>
<clipPath id="clip0_12_85">
<rect width="15" height="15" fill="white"/>
</clipPath>
</defs>
</svg>
